<svg height="100%" stroke-miterlimit="10" style="fill-rule:nonzero;clip-rule:evenodd;stroke-linecap:round;stroke-linejoin:round;" version="1.1" viewBox="0 0 255.96 256" width="100%" xml:space="preserve" xmlns="http://www.w3.org/2000/svg" xmlns:vectornator="http://vectornator.io" xmlns:xlink="http://www.w3.org/1999/xlink">
<defs/>
<clipPath id="ArtboardFrame">
<rect height="256" width="255.96" x="0" y="0"/>
</clipPath>
<g clip-path="url(#ArtboardFrame)" id="Sin-título" vectornator:layerName="Sin título">
<path d="M35.049 28.5418C23.489 37.9318 15.979 51.5518 14.379 66.7018L-0.0410371 203.952L0.0389629 206.312L0.0789629 207.102C0.618963 215.742 4.29896 223.772 10.299 229.782C16.8608 236.378 25.7845 240.082 35.089 240.072L169.719 239.962L171.129 239.942C184.849 239.492 197.579 234.342 207.489 225.382C218.759 215.192 225.329 201.082 226.109 186.172C226.889 171.262 221.819 156.542 211.669 145.222L112.569 34.7018L111.609 33.6618C102.109 23.7118 89.779 17.6518 76.529 16.2418C61.439 14.6318 46.609 19.1618 35.049 28.5418ZM71.179 66.9018C72.539 67.0418 73.799 67.6718 74.749 68.6518L173.969 179.322C175.009 180.465 175.542 181.98 175.449 183.522C175.382 185.065 174.693 186.515 173.539 187.542C172.529 188.461 171.224 188.99 169.859 189.032L52.519 189.132L64.819 72.0618C64.989 70.4918 65.729 69.1418 66.939 68.1618C68.139 67.1818 69.609 66.7318 71.179 66.9018Z" fill="#70211d" fill-rule="nonzero" opacity="1" stroke="none" vectornator:layerName="path"/>
<path d="M220.7 0.00183305L35.1691 0.151833L33.6591 0.191833L32.8091 0.231833C24.9591 0.771833 17.509 3.93183 11.649 9.23183C4.7048 15.5173 0.533765 24.298 0.0489631 33.6518C-0.443095 43.006 2.78923 52.1744 9.039 59.1518L175.03 244.302L176.07 245.402L176.67 246.012C182.31 251.52 189.64 254.969 197.48 255.802C206.87 256.802 216.12 253.982 223.31 248.142C230.577 242.239 235.206 233.694 236.18 224.382L255.96 36.2718L255.88 33.9018L255.84 33.1118C255.302 24.527 251.654 16.4323 245.58 10.3418C238.997 3.71551 230.04-0.00692419 220.7 0.00183305ZM203.41 50.9518L189.39 184.212L70.0392 51.0618C70.0392 51.0618 203.41 50.9518 203.41 50.9518Z" fill="#ed7344" fill-rule="nonzero" opacity="1" stroke="none" vectornator:layerName="path"/>
</g>
</svg>
