<?xml version="1.0" encoding="UTF-8" standalone="no"?>
<!DOCTYPE svg PUBLIC "-//W3C//DTD SVG 1.1//EN" "http://www.w3.org/Graphics/SVG/1.1/DTD/svg11.dtd">
<!-- Created with Vectornator (http://vectornator.io/) -->
<svg height="100%" stroke-miterlimit="10" style="fill-rule:nonzero;clip-rule:evenodd;stroke-linecap:round;stroke-linejoin:round;" version="1.1" viewBox="0 0 270 270" width="100%" xml:space="preserve" xmlns="http://www.w3.org/2000/svg" xmlns:vectornator="http://vectornator.io" xmlns:xlink="http://www.w3.org/1999/xlink">
<defs/>
<g id="Sin-título" vectornator:layerName="Sin título">
<path d="M270 50C270 22.404 247.596 2.84217e-14 220 2.84217e-14L50 2.84217e-14C22.404 2.84217e-14 0 22.404 0 50L0 220C0 247.596 22.404 270 50 270L220 270C247.596 270 270 247.596 270 220L270 50Z" fill="#3178c6" fill-rule="evenodd" opacity="1" stroke="none" vectornator:layerName="path"/>
<path d="M147.366 163.229L147.366 189.596C151.637 191.811 156.858 193.446 162.659 194.553C168.46 195.661 174.788 196.188 181.116 196.188C187.444 196.188 193.245 195.608 199.046 194.395C204.846 193.182 209.593 191.178 213.811 188.594C218.083 185.799 221.721 182.266 223.831 177.52C225.94 172.774 227.575 167.5 227.575 160.645C227.575 155.846 226.837 151.68 225.413 147.989C223.989 144.297 221.932 141.133 219.085 138.496C216.395 135.702 213.284 133.223 209.593 131.114C205.901 129.004 201.682 126.789 196.936 124.786C193.456 123.362 190.608 121.991 187.444 120.62C184.702 119.248 182.329 117.877 180.589 116.506C178.637 115.082 177.161 113.606 176.106 112.077C175.052 110.495 174.524 108.754 174.524 106.803C174.524 105.01 174.994 103.375 175.948 101.899C176.902 100.422 178.216 99.209 179.903 98.155C181.591 97.1 183.7 96.309 186.231 95.729C188.71 95.149 191.452 94.885 194.669 94.885C196.884 94.885 199.204 95.049 201.524 95.381C203.95 95.713 206.428 96.225 208.907 96.91C211.386 97.596 213.811 98.439 216.29 99.494C218.61 100.549 220.772 101.762 222.618 103.133L222.618 78.348C218.61 76.818 214.18 75.658 209.434 74.92C204.688 74.182 199.415 73.812 193.087 73.812C186.759 73.812 180.958 74.498 175.157 75.816C169.356 77.135 164.61 79.244 160.391 82.145C156.12 84.992 153.009 88.473 150.372 93.219C147.893 97.648 146.68 102.711 146.68 109.039C146.68 116.949 148.948 123.805 153.536 129.078C158.071 134.879 165.137 139.098 174.102 143.316C177.741 144.793 180.958 146.27 184.122 147.693C187.286 149.117 189.923 150.594 192.032 152.123C194.3 153.652 196.093 155.34 197.305 157.133C198.624 158.926 199.309 161.035 199.309 163.461C199.309 165.148 198.898 166.73 198.096 168.207C197.295 169.684 196.04 170.949 194.352 172.004C192.665 173.059 190.608 173.902 188.024 174.535C185.546 175.115 182.751 175.432 179.059 175.432C173.259 175.432 167.458 174.43 162.184 172.426C156.384 170.422 151.11 167.416 146.364 163.461L147.366 163.229ZM103.069 98.366L136.819 98.366L136.819 76.745L42.425 76.745L42.425 98.366L76.175 98.366L76.175 194.87L103.069 194.87L103.069 98.366Z" fill="#ffffff" fill-rule="evenodd" opacity="1" stroke="none" vectornator:layerName="path"/>
</g>
</svg>
